<?xml version="1.0" encoding="UTF-8"?>
<svg xmlns="http://www.w3.org/2000/svg" xmlns:xlink="http://www.w3.org/1999/xlink" width="64px" height="64px" viewBox="0 0 64 64" version="1.1">
<g id="surface1">
<path style=" stroke:none;fill-rule:nonzero;fill:rgb(0%,0%,0%);fill-opacity:1;" d="M 33.757812 17.214844 C 35.601562 17.464844 38.097656 17.945312 39.261719 18.980469 C 40.933594 20.683594 39.414062 22.265625 37.75 22.3125 C 32.882812 21.84375 33.875 19.394531 22.976562 21.40625 C 21.265625 21.914062 19.644531 22.683594 18.027344 23.4375 C 19.164062 23.992188 20.316406 24.519531 21.433594 25.105469 C 21.695312 25.246094 22.03125 25.46875 21.957031 25.816406 C 22.011719 26.480469 21.140625 26.480469 20.734375 26.214844 C 13.824219 22.832031 6.898438 19.480469 0 16.078125 L 0 14.582031 C 5.703125 17.4375 11.453125 20.210938 17.1875 23.007812 C 21.429688 18.621094 27.785156 16.871094 33.757812 17.214844 Z M 33.757812 17.214844 "/>
<path style=" stroke:none;fill-rule:nonzero;fill:rgb(0%,0%,0%);fill-opacity:1;" d="M 45.160156 13.003906 C 47.363281 12.691406 49.605469 14.222656 50.164062 16.367188 C 50.738281 18.28125 49.8125 20.460938 48.132812 21.492188 C 46.875 22.253906 45.257812 22.394531 43.910156 21.78125 C 41.757812 20.921875 40.519531 18.210938 41.40625 16.050781 C 41.929688 14.402344 43.476562 13.242188 45.160156 13.003906 Z M 45.160156 13.003906 "/>
<path style=" stroke:none;fill-rule:nonzero;fill:rgb(0%,0%,0%);fill-opacity:1;" d="M 28.609375 30.058594 C 27.367188 30.113281 26.15625 30.9375 25.765625 32.132812 C 25.28125 33.457031 25.527344 34.910156 25.121094 36.257812 C 24.34375 39.191406 22.984375 42.089844 20.6875 44.144531 C 18.503906 46.246094 15.878906 47.925781 12.96875 48.820312 C 12.289062 49.019531 11.59375 49.4375 10.871094 49.195312 C 7.246094 48.167969 3.613281 47.164062 0 46.101562 L 0 47.476562 C 10.1875 50.402344 20.402344 53.25 30.597656 56.160156 C 31.246094 56.347656 31.90625 56.515625 32.574219 56.617188 C 26.507812 56.601562 20.441406 56.617188 14.375 56.613281 L 14.375 57.894531 C 28.996094 57.894531 43.617188 57.890625 58.238281 57.898438 C 59.652344 57.945312 61.207031 57.933594 62.390625 57.050781 C 62.976562 56.65625 63.300781 55.996094 63.523438 55.347656 C 63.261719 55.175781 63.019531 54.953125 62.703125 54.875 C 62.082031 55.269531 61.785156 56.089844 61.035156 56.296875 C 60.273438 56.53125 59.476562 56.5625 58.6875 56.609375 C 52.09375 56.640625 45.5 56.582031 38.90625 56.640625 C 39.253906 56.292969 39.625 55.9375 39.808594 55.472656 C 39.753906 55.1875 39.667969 54.910156 39.546875 54.644531 C 38.617188 54.539062 38.351562 55.679688 37.507812 55.824219 C 36.433594 56.109375 35.28125 56.117188 34.199219 55.882812 C 35.378906 54.453125 36.78125 53.207031 37.84375 51.679688 C 39.277344 49.742188 40.46875 47.585938 41.109375 45.253906 C 41.792969 42.871094 41.230469 40.3125 40.136719 38.144531 C 39.003906 36.042969 37.339844 34.292969 35.621094 32.660156 C 34.882812 32.015625 34.046875 31.390625 33.0625 31.222656 C 32.328125 31.085938 31.648438 31.441406 30.988281 31.695312 C 30.609375 30.722656 29.628906 30.113281 28.609375 30.058594 Z M 31.039062 35.835938 C 32.859375 37.804688 34.980469 39.601562 36.164062 42.0625 C 36.800781 43.304688 36.582031 44.746094 36.492188 46.078125 C 36.277344 48.496094 34.980469 50.597656 34.027344 52.773438 C 33.601562 53.640625 33.21875 54.527344 32.863281 55.425781 C 27.253906 53.84375 21.644531 52.25 16.039062 50.667969 C 14.890625 50.355469 13.765625 49.945312 12.574219 49.8125 C 14.785156 49.796875 16.964844 49.296875 19.019531 48.5 C 22.046875 47.292969 25.101562 45.773438 27.222656 43.214844 C 28.9375 41.03125 30.464844 38.589844 31.039062 35.835938 Z M 31.039062 35.835938 "/>
<path style=" stroke:none;fill-rule:nonzero;fill:rgb(0%,0%,0%);fill-opacity:1;" d="M 31.015625 21.363281 C 30.917969 21.351562 30.824219 21.339844 30.722656 21.328125 C 30.570312 21.316406 30.414062 21.308594 30.253906 21.300781 C 30.089844 21.292969 29.921875 21.289062 29.746094 21.292969 C 29.570312 21.292969 29.390625 21.296875 29.199219 21.304688 C 29.09375 21.308594 28.976562 21.316406 28.867188 21.324219 C 26.695312 23.226562 24.527344 25.128906 22.367188 27.042969 C 21.847656 27.527344 21.226562 27.917969 20.820312 28.507812 C 21.582031 29.390625 22.390625 30.226562 23.164062 31.09375 C 24.324219 29.75 25.316406 28.273438 26.402344 26.871094 C 26.917969 26.183594 27.46875 25.523438 27.90625 24.78125 C 27.808594 24.683594 27.609375 24.488281 27.511719 24.390625 C 28.679688 23.382812 29.847656 22.371094 31.015625 21.363281 Z M 31.015625 21.363281 "/>
<path style=" stroke:none;fill-rule:nonzero;fill:rgb(0%,0%,0%);fill-opacity:1;" d="M 46.738281 5.664062 C 42.601562 9.332031 38.433594 12.96875 34.269531 16.605469 C 34.339844 16.621094 34.40625 16.632812 34.476562 16.648438 C 34.722656 16.703125 34.976562 16.761719 35.230469 16.832031 C 35.484375 16.898438 35.742188 16.972656 35.996094 17.054688 C 36.753906 16.398438 37.511719 15.742188 38.269531 15.085938 C 38.71875 14.683594 39.257812 14.347656 39.492188 13.765625 C 39.425781 13.625 39.285156 13.335938 39.21875 13.195312 C 41.867188 10.863281 44.542969 8.558594 47.167969 6.199219 C 47.023438 6.023438 46.882812 5.84375 46.738281 5.664062 Z M 46.738281 5.664062 "/>
</g>
</svg>
